<svg xmlns="http://www.w3.org/2000/svg" viewBox="0 0 2000 559" data-version="1" data-id="lg_tGcznidHEuzcFhDJyd">
    <g data-padding="20">
        <g>
            <rect width="425.054" height="478.117" x="327.225" y="-342.05" fill="#010c80" rx="12" ry="12"
                transform="matrix(1.17 0 0 1.17 400 400)" />
            <rect width="392.532" height="319.902" x="343.486" y="-262.943" fill="#fff" rx="12" ry="12"
                transform="matrix(1.17 0 0 1.17 400 325.08)" />
            <path fill="#010c80"
                d="M922.841 147.811c13.52 0 26.39-5.93 35.225-15.892a47.144 47.144 0 0070.448 0c8.895 9.962 21.704 15.892 35.224 15.892s26.39-5.93 35.284-15.892a47.44 47.44 0 0035.165 15.892 47.44 47.44 0 0040.68-23.423c6.427-11.2 3.912-25.398-5.973-33.708s-24.303-8.35-34.233-.093a47.44 47.44 0 00-35.699-16.426c-13.52 0-26.329 5.93-35.224 15.892a47.44 47.44 0 00-35.224-15.892c-13.52 0-26.388 5.93-35.224 15.892a47.203 47.203 0 00-70.923.534 26.804 26.804 0 00-42.933 13.64 26.7 26.7 0 002.728 20.161 47.44 47.44 0 0040.68 23.423m-22.12-44.475a8.895 8.895 0 0112.157 3.143c2.076 3.558 5.93 5.752 9.962 5.752 4.033 0 7.828-2.194 9.904-5.752a29.294 29.294 0 0150.582 0c2.076 3.558 5.93 5.752 9.963 5.752s7.887-2.194 9.962-5.752a29.353 29.353 0 0150.583 0 11.445 11.445 0 0019.866 0 29.353 29.353 0 0150.583 0c2.075 3.558 5.93 5.752 9.903 5.752 4.091 0 7.887-2.194 9.962-5.752a8.915 8.915 0 0115.418 8.955 29.65 29.65 0 01-25.38 14.587 29.65 29.65 0 01-25.262-14.587 11.504 11.504 0 00-19.866.06 29.65 29.65 0 01-25.32 14.527 29.65 29.65 0 01-25.322-14.587c-2.075-3.558-5.752-5.693-9.903-5.693-4.032 0-7.828 2.194-9.903 5.752a29.65 29.65 0 01-25.32 14.528 29.65 29.65 0 01-25.322-14.528 11.445 11.445 0 00-19.866 0 29.65 29.65 0 01-25.262 14.528 29.65 29.65 0 01-25.32-14.528 8.895 8.895 0 013.202-12.216m264.536 73.71a26.685 26.685 0 00-30.598 2.668 47.44 47.44 0 00-35.699-16.366c-13.52 0-26.329 5.93-35.224 15.892a47.44 47.44 0 00-35.224-15.892c-13.52 0-26.388 5.93-35.224 15.892a47.203 47.203 0 00-70.923.534 26.685 26.685 0 00-30.599-2.669 26.685 26.685 0 00-9.606 36.53 47.44 47.44 0 0040.68 23.363c13.52 0 26.33-5.93 35.224-15.892a47.144 47.144 0 0070.448 0 47.143 47.143 0 0070.448 0 47.44 47.44 0 0035.225 15.892 47.44 47.44 0 0040.68-23.423c7.407-12.725 3.108-29.045-9.607-36.47m-5.752 27.575a29.413 29.413 0 01-50.583 0 11.504 11.504 0 00-19.866.06 29.413 29.413 0 01-50.642 0 11.386 11.386 0 00-19.806 0 29.65 29.65 0 01-25.32 14.528 29.65 29.65 0 01-25.322-14.529 11.445 11.445 0 00-19.866 0 29.65 29.65 0 01-25.262 14.53 29.65 29.65 0 01-25.32-14.53 8.93 8.93 0 1115.417-9.014 11.386 11.386 0 0019.807 0 29.294 29.294 0 0150.582 0c2.076 3.558 5.93 5.753 9.963 5.753s7.827-2.195 9.962-5.753a29.353 29.353 0 0150.583 0 11.445 11.445 0 0019.866 0 29.354 29.354 0 0150.583 0c2.075 3.558 5.87 5.753 9.903 5.753 4.091 0 7.887-2.195 9.962-5.753a8.915 8.915 0 0115.418 8.955m5.692 61.553a26.685 26.685 0 00-30.598 2.61 47.44 47.44 0 00-35.699-16.367c-13.52 0-26.329 5.93-35.224 15.892a47.203 47.203 0 00-70.448 0 47.144 47.144 0 00-70.923.474 26.804 26.804 0 00-42.933 13.64 26.7 26.7 0 002.728 20.22 47.44 47.44 0 0040.68 23.424c13.52 0 26.388-5.93 35.224-15.892a47.44 47.44 0 0035.224 15.892c13.52 0 26.388-5.93 35.224-15.892 8.895 9.962 21.704 15.892 35.224 15.892s26.39-5.93 35.284-15.892a47.44 47.44 0 0035.165 15.892 47.44 47.44 0 0040.68-23.423 26.685 26.685 0 00-9.607-36.53m-5.752 27.516a29.65 29.65 0 01-25.32 14.588 29.65 29.65 0 01-25.263-14.588 11.564 11.564 0 00-19.866 0 29.65 29.65 0 01-25.32 14.588 29.65 29.65 0 01-25.322-14.588 11.445 11.445 0 00-19.806 0 29.65 29.65 0 01-25.32 14.588 29.65 29.65 0 01-25.322-14.588 11.445 11.445 0 00-19.866 0 29.65 29.65 0 01-25.262 14.588 29.65 29.65 0 01-25.32-14.588 8.9 8.9 0 1115.417-8.895 11.445 11.445 0 0019.807-.06 29.294 29.294 0 0150.582 0c2.076 3.56 5.93 5.753 9.963 5.753s7.827-2.194 9.903-5.752a29.413 29.413 0 0150.583 0 11.563 11.563 0 0019.925 0 29.354 29.354 0 0150.583 0c2.075 3.558 5.87 5.752 9.903 5.752 4.091 0 7.887-2.194 9.962-5.752a8.895 8.895 0 0112.157-3.202 8.847 8.847 0 013.202 12.156" />
            <rect width="446.427" height="98.31" x="408.296" y="-169.656" fill="none" rx="0" ry="0"
                transform="translate(400.5 606.67)" />
            <path fill="#fff"
                d="M812.18 447.75h51.85q8.18 0 14.49 1.78t10.83 4.91q4.53 3.14 7.4 7.27t4.26 8.83 1.39 9.57q0 6.18-2.22 12.05t-6.87 10.57-11.92 7.48q-7.26 2.79-17.36 2.79h-51.85zm44.89 25.05h-10.44v15.14h10.62q1.91 0 3.44-.61 1.52-.61 2.56-1.65 1.05-1.05 1.61-2.44.57-1.39.57-2.87 0-2.09-1-3.83t-2.83-2.74-4.53-1m121.36-25.05v21.92H940.5v4.96h36.62v12.27h-36.58q-.04 0-.04.04v5h38.45V513h-73.69v-65.25zm55.51 36.01v-36.01h33.49V513h-40.28l-10.96-31.32v-.05q0-.04-.05-.04h-.08q-.05 0-.05.04V513h-33.49v-65.25h38.97l12.27 36.1h.13q.05 0 .05-.04zm90.91-36.01h39.5q-4.79 8.7-9.57 17.4-4.79 8.7-9.61 17.4-4.83 8.7-9.62 17.4V513h-36.1v-13.14q-3.05-5.22-6.05-10.44l-6-10.44q-3-5.22-6.05-10.4-3.04-5.17-6.05-10.39-3-5.22-6.04-10.44h41.76q1.13 4.17 2.22 8.35 1.08 4.17 2.21 8.35 1.14 4.18 2.18 8.35l.04.05.05.04.04-.04.04-.05 1.74-6.26q.87-3.13 1.79-6.27.91-3.13 1.78-6.26zm86.75 25.92q13.05 0 21.84 1.13 8.78 1.13 14 3.53 5.22 2.39 7.49 6.09 2.26 3.69 2.26 8.74 0 5.48-3.53 9.7-3.52 4.22-9.83 7.05-6.3 2.82-14.61 4.26t-17.88 1.44q-10.62 0-19.32-1.57t-14.79-4.83-9.09-8.39q-3-5.14-2.39-12.27l37.15-2.52q-.7 2.61.39 4.35t3.44 2.61 5.22.87q1.74 0 3.17-.27 1.44-.26 2.57-.78t1.74-1.35q.61-.82.61-1.87 0-2.09-2.13-2.69-2.13-.61-6.22-.61h-2.18q-12.87 0-21.4-1.35t-13.49-3.79q-4.95-2.43-7.04-5.78t-2.09-7.53q0-4.43 2.35-8.04 2.35-3.62 6.65-6.36 4.31-2.74 10.1-4.56 5.78-1.83 12.7-2.79 6.91-.95 14.48-.95 10.7 0 19.19 1.91 8.48 1.91 14.27 5.48 5.78 3.57 8.3 8.53 2.53 4.96 1.22 11.13l-35.93 1.66q.96-2.53-.09-4.14-1.04-1.61-3.26-2.35t-5-.74q-1.74 0-3.13.31-1.4.3-2.4.87-1 .56-1.56 1.35-.57.78-.57 1.65 0 1.04.7 1.7.69.65 2.13.91t3.78.26z"
                paint-order="stroke" />
        </g>
        <path fill="transparent" stroke="transparent" d="M751.5 0h497v559h-497z" />
    </g>
</svg>